<svg id="_ÎÓÈ_1" data-name="—ÎÓÈ_1" xmlns="http://www.w3.org/2000/svg" viewBox="0 0 611.32 905.66"><defs><style>.cls-1{fill:#a36155;}.cls-2{fill:#fac56a;}.cls-3{fill:#12174a;}.cls-4{fill:#fff;}.cls-5{fill:#ffbbb3;}.cls-6{fill:#d69851;}</style></defs><path class="cls-1" d="M410.37,350c-7.77-19.21-36.51-16.18-44.05-34.92-8.06-20.07,2.62-33.59,15.57-48.59,10.12-11.71,10.31-24.38,14.86-38.6,3.33-10.42,12-17.81,13.33-31.18,1.22-12.14-4.9-18.29-7.61-26.21-3.27-9.58-1.42-21.83-4-31.85-4-15.7-14.21-27.08-29.34-35.37-23.88-13.1-61.61-6.52-81.79,12.22-20.5,19-23.74,37.89-24.25,69.07-.17,10.5-11.73,26.76-12.06,36.74-.64,18.91,15.36,38.57,16.74,56.5,1,12.62.82,23.1-6.51,33.95-9.61,14.23-35.59,21.59-38.5,31.49-3.24,11,7.73,29.71,13.67,41.55,9.09,18.16,47,65,72.13,86.61,16.78,14.43,40.82,34,60.42,20.95,16.42-10.94,32-35,38.56-57.79C416.12,404.86,418.05,368.92,410.37,350Z"/><path class="cls-2" d="M486.21,408C485.13,363.1,440.46,352,408,340.52c-3-1.06-14-5.25-13-.09,2.34,12.95,5.49,27.31,5.51,44.36S398.27,419.91,391,436c-8.29,18.26-14.88,28-26.3,37.6-3.16,2.66-8.83,5-21.92-.42-19-7.85-47-33.62-59.33-49.52-15.92-20.6-50.54-77.5-53.72-84.82-.88-2-9.13.72-10.81,1.48-8.8,4-45.17,12.84-62.19,32.16-13,14.75-17.53,36-13.85,53.55,21.45,102.3,56,90.27,43.13,218.57-1.8,24.14-48,93.42-32.13,113.26,18.68,23.4,83.46,39.52,134.12,44,48.29,4.26,130.09,2.91,157.65-27.35,27.88-30.62-11.83-111.55-3.93-136.78,5.13-22.16,18.27-44.17,27.18-70.37,11.5-33.81,5.33-61.55-.59-92.25C463.1,448.13,486.91,437.22,486.21,408Z"/><path class="cls-3" d="M311.9,189.74c-1.52-2.44-8.26-3.87-10.74-.64a4.36,4.36,0,0,0-.62,1.93c-.15,2,.6,4.67,2.12,5.33a7.55,7.55,0,0,0,7.54-1.56C311.23,193.71,312.87,191.31,311.9,189.74Z"/><path class="cls-3" d="M303.77,194.63Z"/><path class="cls-3" d="M371.15,191.71c-2.08-2.11-7.48-2.12-9.45-.28a3.06,3.06,0,0,0-1.19,1.8c-.28,2.58.9,4,1.93,4.63a8.75,8.75,0,0,0,4.86.62,3.44,3.44,0,0,0,2.06-.74C371,196.23,372.16,193.39,371.15,191.71Z"/><path class="cls-3" d="M321.13,195.86c-1.91,0-3.17-1.69-4.78-3.83-.33-.45-.68-.92-1.06-1.41-3-3.81-8.17-4.13-10.77-3.7a19.53,19.53,0,0,0-8.78,3.56,20.91,20.91,0,0,0-3,2.87,1.21,1.21,0,0,1-1.7.23,1.23,1.23,0,0,1-.1-1.73,22.93,22.93,0,0,1,3.5-3.31,22.06,22.06,0,0,1,9.91-4.06c4.14-.66,9.73.47,12.89,4.51.39.5.75,1,1.1,1.45,1.13,1.52,2.21,3,3,3a1.12,1.12,0,0,1,1.11,1.23A1.33,1.33,0,0,1,321.13,195.86Z"/><path class="cls-3" d="M353.24,197a1.12,1.12,0,0,1-.48-.1,1.19,1.19,0,0,1-.5-1.63c1.77-3.54,6.25-7.23,9.79-8.06a33.83,33.83,0,0,1,11.88.24,13.79,13.79,0,0,1,6.22,4.3,1.26,1.26,0,0,1-.11,1.74,1.18,1.18,0,0,1-1.7,0,11.84,11.84,0,0,0-5.21-3.67,31.91,31.91,0,0,0-10.72-.21c-2.79.65-6.61,3.82-8,6.64A1.3,1.3,0,0,1,353.24,197Z"/><path class="cls-3" d="M327.52,177.69c-8.71-3-18.82-6.82-28.41-5.73-2.57.29-13.62,3.82-9.14,6a2.76,2.76,0,0,0,1.66,0c13.89-4.09,30,1.58,35.14,1.78C328.65,179.86,329.07,178.22,327.52,177.69Z"/><path class="cls-3" d="M386.15,178.65a27.71,27.71,0,0,0-13.19-2.9,49.65,49.65,0,0,0-21.13,4.7c-1.94,1-1.45,2.89.38,2.41a83.37,83.37,0,0,1,20.36-2.56c6.72.16,11.23,2.56,15.24.7C388.89,180.5,387,179.08,386.15,178.65Z"/><path class="cls-2" d="M188.88,661.35c13.88-44,19.53-90.07,18.62-134.61C206.7,487.67,195.74,351.34,160,370c-23.54,12.26-26,66.44-29.65,89.81-5,31.67-7.89,63.94-17.77,94.91-12.1,37.95-27.37,82.66-31.64,124.22-1.79,17.46,3.17,35.4,25.2,34.92C148.12,712.92,176.24,701.43,188.88,661.35Z"/><path class="cls-3" d="M464.18,201.82c-2-3.63-4.4-7.49-6.82-10.95-14.76-21.1,10.91-42.57-15.34-55.5-6.06-3-15.44-4.63-15.66-12.9-.7-26.5-22.94-20.67-30.75-36-8.31-16.34-26-17.64-41.64-10.69-21.45-15.69-60.42-16.36-79.46,4.55-10.07,11-15.66,7.87-26.48,13.44-8.76,4.51-4.25,15.43-13.81,18C221.75,115,208.41,121,208.61,139.3c0,2.91-2.46,7-6.12,8.59-11.07,4.85-18.15,7.07-18.33,20.14-.19,13.5-17.46,11.19-20.93,27.47-1,4.71.93,11.59,3.5,14.92,11.26,14.58-8.6,32.24,7.31,44,12.19,9-5,26.34,1,39.91,3.34,7.6,8.78,12.68,15.46,16.69,7.44,4.45,5.7,12,13.53,15.28,6.1,2.58,7.06.65,12.78,3.62,5.24,2.71,7,8.51,10.71,7.23,9-3.12,30.91-11.77,40.83-19,8.9-6.47,10.23-31.76,11.3-44.91.95-11.69-12.18-16.23-11.53-31.93.2-4.77-1.09-7.87-3.33-10.38-7.66-8.58-9.44-18.95-2.69-28,6.39-8.59,9.13-16.38,11.65-25.53,2.26-8.22,6.72-14.57,11.63-20.8,7-8.89,22.4-7.46,26.22-19.55,5-15.84,19.27-25.65,34.46-24.45,11.42.89,21.64,9.66,33.78,4.64,5.5,9.18,13.34,17.7,14.33,28.86,1.38,15.59-5.14,31.23-4.3,46.83,1,19.28-1.74,33.66-7.89,51.33-4.29,12.33-12.33,27-23.38,37-5.81,5.25-5.14,18.1-4.9,24.12.36,9,5.79,15,15,19.56s19.84,8.55,30.72,13.1c7.64-3.07,16.2-10.31,18.6-19.91.85-3.43,3.26-8.54,6.63-10,5-2.23,12.23-2.3,15.46-7.76s.95-11.37,2.84-16.47c4.61-12.44,20.24-11.93,14.87-30.86C452.24,233.57,475.1,221.41,464.18,201.82Z"/><path class="cls-4" d="M387.38,227.44c.19-8.75-12.34-8.21-20-9.94-6-1.36-13.31-2.95-17.73-6.8-2.08-1.8-6.48-4.79-10.52-5-6.43-.27-12.85,3.15-14.21,3.62-16.09,5.64-42.13,4.19-51.7,6a4.21,4.21,0,0,0-3.48,3.85c-.15,12.56-.79,32.43-1.68,46.31-.35,5.51.59,6.55,2.85,8.21,3.16,2.32,6.92,4.73,9.09,7.36,13.73,16.68,22.64,23.42,43.15,24.7,13.22.83,25-4.95,35.29-17.91,4-5,13.89-9.32,16.9-14.83C381.23,262.33,387.13,239.65,387.38,227.44Z"/><path class="cls-5" d="M403.69,186.14c-1-.39-4.06-.94-5.58-1.64a76.91,76.91,0,0,0-49.77-3.27,4.23,4.23,0,0,0-1.8,1.09,65.89,65.89,0,0,1-12.13-.68,3.54,3.54,0,0,0-1.81-1.42c-7.11-2.5-18.24-5.27-25.74-5.71a108.34,108.34,0,0,0-21.52,1.61,7.62,7.62,0,0,0-1.8.63c0-.3-.26-.54-1-.45a50.76,50.76,0,0,0-5.18.7c-1.36.29-1.84.74-2.14,1.5-1.45,3.71-1,11.64-.76,15.48a3,3,0,0,0,1.08,2,28,28,0,0,0,3,1.37,25.47,25.47,0,0,0,.22,3.19,8.91,8.91,0,0,0,4.73,6.54c2.13,1,10,4.38,22.44,5.06.39,0,.84,0,1.31,0,4.33,0,11.78-.85,14.85-2.2a17.87,17.87,0,0,0,5.93-4.74c1.7-2.18,4.8-9.79,6.39-15.79l.61-.16c3.35-.9,7.38-.06,9.74.81.18,7.32,2.09,16.25,3,18.56,1.22,3,4.05,4.3,6.66,5.17A66.44,66.44,0,0,0,373,216.76h.06c5.36,0,12.86-.94,15.24-1.7,2.13-.68,4.88-2.27,5.9-4.14a32.19,32.19,0,0,0,2.38-6.69,10,10,0,0,0,4-2.07,3.42,3.42,0,0,0,.93-1.42A70.45,70.45,0,0,0,404.44,188,2.05,2.05,0,0,0,403.69,186.14Zm-77.93,17.29a14.49,14.49,0,0,1-4.64,3.74c-2.73,1.2-10.92,2.11-14.77,1.91-11.91-.65-19.38-3.83-21.39-4.8a6.11,6.11,0,0,1-3.19-4.39c-.59-4,.21-14,1.24-18.53a3.33,3.33,0,0,1,2.71-2.22,109.83,109.83,0,0,1,17.72-1.63c1,0,2.06,0,3,.08,7.24.42,18,3.12,25,5.56,1,.34.87,2.14.87,2.15C331.48,191,327.42,201.3,325.76,203.43Zm65.83,6.15a8.38,8.38,0,0,1-4,2.54,68.77,68.77,0,0,1-14.32,1.56h0a63.26,63.26,0,0,1-17.63-2.78c-2-.67-4.19-1.63-5-3.59-1-2.54-3.57-15.25-2.62-22a2.09,2.09,0,0,1,.88-1.09,75.4,75.4,0,0,1,19.35-2.54,81.62,81.62,0,0,1,8.86.49c6.07.65,14.87,2.85,19.09,5.4a1.5,1.5,0,0,1,.43,1.38c-.11.64-.25,1.41-.4,2.27C395.33,196.28,393.7,205.68,391.59,209.58Z"/><path class="cls-3" d="M200.78,614.25h-.22A1.88,1.88,0,0,1,199,612a433.47,433.47,0,0,0,6.54-85c-.47-22.86-4-69.94-11.93-105.95a2.23,2.23,0,0,1,1.52-2.56,1.85,1.85,0,0,1,2.39,1.38c8,36.29,11.55,83.72,12,106.74a438.24,438.24,0,0,1-6.61,85.88A2.21,2.21,0,0,1,200.78,614.25Z"/><path class="cls-1" d="M244.34,618.17c-2.93-9.12-7.16-18.36-13-25.35a.79.79,0,0,0-.44-.41c-6.86-12.44.69-37.75-16-42.83-1.13-2.57-23.25-31.47-25.22-24.85-1.15,3.84-.91,7.8,1.17,10.88-5.08-2.41-11.12-3.14-16-5.6-3-1.29-2.35,5.42-2.27,7.24.61,13.41,30.3,14.85,34.3,28.48-14.59-2.15-29-5.18-44-5.68-2.16-.07-2,1.91-1.89,3.11.76,12,17.16,9.21,25.58,11.74,4.65,3.44,11,4.3,16.19,6.86A65.82,65.82,0,0,1,209.44,592c-13.52-2.73-27.85-9.49-41.94-8.2C159,595.61,195.43,600,202.29,605c5.28,16.77,24.43,18.08,40.48,16.26C244.51,621.09,244.69,619.25,244.34,618.17Z"/><path class="cls-3" d="M174.78,590.7a26.08,26.08,0,0,1-9-2.09,1.16,1.16,0,0,1-.6-1.58,1.27,1.27,0,0,1,1.59-.74c7.87,3.05,12.48,2.5,14.48-1.73a1.26,1.26,0,0,1,1.61-.67,1.17,1.17,0,0,1,.54,1.61C181.47,589.51,178.13,590.7,174.78,590.7Z"/><path class="cls-3" d="M170.81,566.3c-3.36,0-7.43-1.12-10.67-2.14a1.16,1.16,0,0,1-.69-1.54,1.28,1.28,0,0,1,1.55-.83c8.78,2.77,12,2.24,13.19,1.3a1.9,1.9,0,0,0,.65-1.73A1.34,1.34,0,0,1,176,560a1.11,1.11,0,0,1,1.23,1.1,4.59,4.59,0,0,1-1.67,3.89A7.57,7.57,0,0,1,170.81,566.3Z"/><path class="cls-3" d="M182.72,538.37c-3.25,0-6.88-2-9.45-3.36-.6-.32-1.13-.61-1.59-.84a1.18,1.18,0,0,1-.47-1.63,1.25,1.25,0,0,1,1.63-.61c.49.24,1,.54,1.67.88,2.82,1.52,7.08,3.82,9.77,2.87a3.41,3.41,0,0,0,1.9-1.81,1.27,1.27,0,0,1,1.63-.62,1.18,1.18,0,0,1,.49,1.62,6,6,0,0,1-3.38,3.14A6.51,6.51,0,0,1,182.72,538.37Z"/><path class="cls-3" d="M227.84,582.74a1.1,1.1,0,0,1-1.09-.92,77.7,77.7,0,0,1-1-9.68,75.46,75.46,0,0,0-.89-8.83c-1.74-9.77-17.46-17.45-28.94-23.06-1.63-.79-3.2-1.56-4.67-2.3a1.19,1.19,0,0,1-.45-1.64,1.24,1.24,0,0,1,1.64-.59c1.46.73,3,1.5,4.65,2.29,12.56,6.14,28.2,13.78,30.14,24.68a80.56,80.56,0,0,1,.92,9.11,77.43,77.43,0,0,0,1,9.39,1.33,1.33,0,0,1-1,1.5A1.06,1.06,0,0,1,227.84,582.74Z"/><path class="cls-3" d="M198.87,534.69c-4,0-7.9-4.41-10.45-7.3l-.72-.8a1.27,1.27,0,0,1,.13-1.74,1.18,1.18,0,0,1,1.7,0l.72.81c2.93,3.31,7.37,8.31,10.63,5.93a1.14,1.14,0,0,1,1.66.24,1.3,1.3,0,0,1-.37,1.73A5.49,5.49,0,0,1,198.87,534.69Z"/><path class="cls-3" d="M229.38,595.47a1.12,1.12,0,0,1-.75-.29c-3.68-3.43-5.64-8.33-7.54-13.07-3-7.42-5.8-14.43-14.85-15.08a84,84,0,0,1-10.42-1.82c-3.28-.7-6.68-1.43-9.77-1.85a1.13,1.13,0,0,1-.93-1.38,1.31,1.31,0,0,1,1.42-1.07c3.18.43,6.61,1.17,9.94,1.88a81.72,81.72,0,0,0,10.1,1.78c10.43.74,13.64,8.73,16.74,16.46,1.81,4.51,3.68,9.17,7,12.27a1.25,1.25,0,0,1,0,1.74A1.31,1.31,0,0,1,229.38,595.47Z"/><path class="cls-3" d="M226.68,616.31a1.1,1.1,0,0,1-.58-.16c-4.29-2.6-6.56-7.15-8.76-11.55-2.47-5-4.8-9.63-9.79-11-.15-.06-11.83-3.79-17.75-5.29a1.15,1.15,0,0,1-.78-1.49,1.31,1.31,0,0,1,1.52-.91c6,1.52,17.72,5.27,17.84,5.31,5.88,1.63,8.54,7,11.12,12.13,2.06,4.12,4.18,8.38,7.94,10.65a1.2,1.2,0,0,1,.33,1.68A1.3,1.3,0,0,1,226.68,616.31Z"/><path class="cls-6" d="M451.2,704.33c-15.54-4.14-30.6-4.73-47.74-6.91-19.95-2.53-40.07-4.53-60-7.8-13.24-2.18-19.88-11.33-34.49-11.23a550.27,550.27,0,0,0-60.7,3.42c-28,3.33-61.06,8.53-86,23.44-4.08,9.65-7.67,19.11-9.76,27.5,4.2,10.26,18.21,18,36.11,17.27,29.06-1.15,85.08-30,102.21-38.7,22.39-11.46,31.63-10.1,51.14-5.18,24.51,6.19,92.84,43.1,113.59,40C456.25,733.34,454.09,718.74,451.2,704.33Z"/><path class="cls-2" d="M524.7,583.38c-3.61-49.67-28-95.91-29.62-145.19-.58-17.24-2.91-36.3-11.17-51.84-2.68-5.06-8.3-13.08-13.44-13.08-17.61,0-19,27.87-20,40.87-1.5,18.32,2.27,36.31,6.52,54.22,4.59,19.37,11.33,39.45,13.89,58.56,2.4,17.89-2.46,39.53-11.23,58.13-7.27,15.43-21.35,27.36-34.82,36.7-25.6,17.76-66.44,25.4-89.49,28.87-18.54,2.79-43.4,10.67-40.5,23.4,4.37,19.21,99.58,26.9,129.6,31.08,23.94,3.33,45.82,8.12,67.32,8.2,17,.06,33.1-6.8,36.27-24.61C533,660.29,527.07,616,524.7,583.38Z"/><path class="cls-6" d="M498,577.11c5.93-21.65-9.73-39.86-19.57-85.91-5.45-25.49-17.26-49.93-23.55-55.69-5.1-4.67-2.16,14.94,2.09,32.85,4.59,19.37,11.33,39.45,13.89,58.56,2.4,17.89-2.46,39.53-11.23,58.13-7.27,15.43-21.35,27.36-34.82,36.7-25.6,17.76-66.44,25.4-89.49,28.87-7.79,1.17-7.47,4.51,10,4.19,24.23-.43,61.19-5.12,84.79-15.13C455.9,628.72,489.84,606.81,498,577.11Z"/><path class="cls-1" d="M536.39,578.41c-3.47-6.69-4.53-15.2-9.37-21-4.94-7.22-13.2-11-20.09-15.84a102.46,102.46,0,0,0-26.73,14.1c1.65-6.16,2.11-14.91,4.69-20.82,8.4-3.68,13.68-8.94,20.68-15,4-3.47,9.42-7.86,8.68-13.29-1.27-9.44-33.3,14.22-39.54,16.57-7.8,5.9-9.21,23.45-13.07,32.83-16,16.28-18.07,40.13-35.12,54.69-14.65,12.5-45.08,12.74-59.5,13.7-6.77.45-17,1.66-17.54,8.82-.45,6.26-3.48,30.85,7.26,32.61,17.27,2.85,50.88-10.6,70.35-12.19,16.92.34,31.74-5.7,39.9-21.93,4.07-7.56,7.52-14.27,11.09-21.62,7.72-4.94,15.33-9.84,24.52-8.43,6.22,5.75,10,18.28,19.9,17.58,3.72.81-5.14-17.26-5.68-19.21-3.77-3.67-5.94-9.11-9.59-12.82-6.91-2-20.15,1.26-25.24-3.88,8.56-.5,17.11-.39,25.68-1.55,3.55,3.94,5.66,9.39,9.7,12.94,3.57,5.55,3.26,17.76,12.47,16.17,3-3.14-3.06-18-4.14-22.81-5.92-7-8.44-17.29-15.15-23.46-6.89-.79-15.16,2.4-22.28,4.33,6.38-3.79,13.54-5.45,20.06-8.89,2.61,2.38,6.7,3.46,9.36,6.15,4.27,6.37,7.94,18.59,17.95,15.78C537.4,581.44,537.3,579.49,536.39,578.41Z"/><path class="cls-3" d="M463.42,566.13a1.09,1.09,0,0,1-1-.64,1.32,1.32,0,0,1,.59-1.68c3.62-2,7.31-3.86,10.88-5.7,6.41-3.28,13-6.68,19.44-10.66a1.14,1.14,0,0,1,1.63.39,1.31,1.31,0,0,1-.5,1.7c-6.49,4-13.16,7.46-19.62,10.77C471.27,562.13,467.6,564,464,566A1.25,1.25,0,0,1,463.42,566.13Z"/><path class="cls-3" d="M535.14,583.36a1.09,1.09,0,0,1-1-.58c-.48-.92-1-1.87-1.59-2.84-2.88-5-6.13-10.56-1.55-14.55a1.17,1.17,0,0,1,1.69.09,1.28,1.28,0,0,1-.21,1.74c-2.74,2.38-.92,6,2.16,11.35.57,1,1.14,2,1.64,2.92a1.31,1.31,0,0,1-.52,1.69A1.15,1.15,0,0,1,535.14,583.36Z"/><path class="cls-3" d="M464.28,575.52a1.11,1.11,0,0,1-.88-.43,1.29,1.29,0,0,1,.25-1.74c5.38-4.5,11.42-4.61,17.26-4.72a48.31,48.31,0,0,0,8.25-.62,37.85,37.85,0,0,0,7.95-2c4.84-1.59,9.84-3.23,14-1.46a1.16,1.16,0,0,1,.55,1.6,1.25,1.25,0,0,1-1.61.69c-3.37-1.43-7.93.06-12.36,1.51a39.67,39.67,0,0,1-8.37,2.11,48.55,48.55,0,0,1-8.54.65c-5.66.11-11,.21-15.68,4.12A1.27,1.27,0,0,1,464.28,575.52Z"/><path class="cls-3" d="M509.78,592.44a1.09,1.09,0,0,1-1-.59c-2.59-5.07-8.16-4.82-13.55-4.56-.85,0-1.69.08-2.49.09a63.93,63.93,0,0,1-8.37-.57c-5.67-.66-11-1.27-16.5,1.26a1.12,1.12,0,0,1-1.55-.6,1.32,1.32,0,0,1,.7-1.63c6.11-2.82,12-2.14,17.79-1.49a63.6,63.6,0,0,0,8.07.57c.77,0,1.59,0,2.42-.1,5.52-.24,12.39-.57,15.63,5.76a1.3,1.3,0,0,1-.54,1.69A1.19,1.19,0,0,1,509.78,592.44Z"/><path class="cls-3" d="M528.3,611.72c-1.93-5.2-3.8-10.84-2.36-14.13a4,4,0,0,1,2-2.09,1.13,1.13,0,0,1,1.55.62,1.34,1.34,0,0,1-.72,1.63,1.3,1.3,0,0,0-.67.71c-1.14,2.61,1.32,9.24,2.37,12.07l-1.07.67Z"/><path class="cls-3" d="M522.21,620.43a1.11,1.11,0,0,1-1-.57c-.43-.79-.93-1.62-1.45-2.47-2.71-4.51-6.09-10.12-2.15-13.72a1.16,1.16,0,0,1,1.69,0,1.26,1.26,0,0,1-.17,1.74c-2.17,2-.16,5.78,2.7,10.53.54.88,1,1.73,1.5,2.55a1.3,1.3,0,0,1-.48,1.7A1.27,1.27,0,0,1,522.21,620.43Z"/><path class="cls-3" d="M501.55,512.6a4.77,4.77,0,0,1-4.11-2.16,1.28,1.28,0,0,1,.31-1.73,1.14,1.14,0,0,1,1.67.19c2.1,3,6.87,0,12-3.61.75-.52,1.44-1,2.05-1.41a1.14,1.14,0,0,1,1.64.34,1.31,1.31,0,0,1-.46,1.72c-.59.38-1.26.85-2,1.36C509.46,509.55,505.11,512.6,501.55,512.6Z"/><path class="cls-2" d="M377.57,639.85c-2.07-7.77-5.14-18.66-15.65-19.27-24.26-1.41-48.56-1.64-72.84-3.07-35.43-2.08-70.73-7.59-106.78-4.28-40.84,3.75-121.24,51.82-93,93.86,8,12,38.21,5.65,62.05,3.58,39.28-3.41,157.05-16.4,205.45-36.64C373.47,667.05,381.32,654,377.57,639.85Z"/><path class="cls-3" d="M122.57,714.93a1.86,1.86,0,0,1-1.86-1.93,2.23,2.23,0,0,1,2-2.18c66.69-4.13,187-19.28,233.38-38.68a40.38,40.38,0,0,0,12.55-8,2,2,0,0,1,2.83,0,2.12,2.12,0,0,1-.2,2.91,44.7,44.7,0,0,1-13.91,8.87c-46.84,19.59-167.74,34.85-234.71,39Zm254.85-73a1.83,1.83,0,0,1-1.79-1.38c-2.34-8.78-5.34-17.39-14-17.89-12-.7-24.27-1.12-36.13-1.52-12-.41-24.46-.83-36.7-1.55-9.92-.58-20-1.44-29.73-2.28-25-2.15-50.95-4.37-76.76-2-13.28,1.22-29.77,7-45.27,15.81a1.89,1.89,0,0,1-2.68-.76,2.18,2.18,0,0,1,.94-2.8c16-9.12,33.11-15.08,47-16.35,26.15-2.4,52.23-.16,77.45,2,9.71.84,19.75,1.7,29.62,2.28,12.19.71,24.61,1.14,36.62,1.54s24.15.82,36.22,1.52,15.34,13.19,17.33,20.65a2.24,2.24,0,0,1-1.42,2.62A2,2,0,0,1,377.42,641.9Z"/><path class="cls-4" d="M271.36,223.86a1.83,1.83,0,0,1-1.73-1.18c-3.12-8.08-5.37-20.36-5.47-29.86a2.23,2.23,0,0,1,2-2.22,1.85,1.85,0,0,1,2,1.87,91.38,91.38,0,0,0,5.21,28.46,2.21,2.21,0,0,1-1.16,2.73A1.93,1.93,0,0,1,271.36,223.86Z"/></svg>